<?xml version="1.0" standalone="no"?>
<!DOCTYPE svg PUBLIC "-//W3C//DTD SVG 20010904//EN"
 "http://www.w3.org/TR/2001/REC-SVG-20010904/DTD/svg10.dtd">
<svg version="1.0" xmlns="http://www.w3.org/2000/svg"
 width="1024.000000pt" height="1024.000000pt" viewBox="0 0 1024.000000 1024.000000"
 preserveAspectRatio="xMidYMid meet">
<metadata>
Created by potrace 1.14, written by Peter Selinger 2001-2017
</metadata>
<g transform="translate(0.000000,1024.000000) scale(0.100000,-0.100000)"
fill="#000000" stroke="none">
<path d="M0 5120 l0 -5120 5120 0 5120 0 0 5120 0 5120 -5120 0 -5120 0 0
-5120z m5545 3854 c72 -8 155 -19 185 -24 437 -76 751 -178 1120 -361 384
-191 703 -421 1011 -728 307 -308 537 -627 728 -1011 183 -369 285 -683 361
-1120 60 -342 60 -878 0 -1220 -76 -437 -178 -751 -361 -1120 -191 -384 -421
-703 -728 -1011 -308 -307 -627 -537 -1011 -728 -369 -183 -683 -285 -1120
-361 -342 -60 -878 -60 -1220 0 -437 76 -751 178 -1120 361 -384 191 -703 421
-1011 728 -307 308 -537 627 -728 1011 -183 369 -285 683 -361 1120 -60 342
-60 878 0 1220 76 437 178 751 361 1120 278 559 673 1027 1189 1407 424 312
1006 568 1505 663 355 66 517 80 870 73 110 -2 259 -10 330 -19z"/>
<path d="M5005 7834 c-11 -3 -30 -7 -41 -9 -12 -3 -25 -13 -30 -22 -4 -10 -10
-130 -14 -268 l-5 -249 -125 -32 c-192 -49 -320 -103 -469 -198 -250 -160
-424 -411 -477 -684 -17 -87 -19 -323 -3 -408 66 -372 296 -657 730 -904 58
-33 256 -131 440 -219 523 -249 651 -335 731 -496 79 -158 38 -366 -97 -494
-188 -178 -550 -208 -852 -71 -161 73 -336 219 -506 423 -27 31 -56 57 -66 57
-10 0 -107 -75 -217 -166 -227 -189 -294 -249 -294 -266 0 -18 49 -97 103
-168 153 -198 380 -384 608 -496 101 -50 328 -128 403 -139 103 -14 94 10 98
-267 2 -174 7 -249 16 -265 13 -23 14 -23 250 -23 130 0 243 4 251 9 23 15 30
88 31 307 0 231 -1 227 60 239 193 38 412 135 579 258 246 179 424 500 450
807 31 368 -68 670 -298 912 -192 203 -409 333 -941 563 -424 184 -601 304
-674 459 -23 48 -26 68 -26 159 0 102 0 104 39 168 88 147 277 237 516 244
237 8 427 -62 511 -187 29 -43 31 -53 36 -163 6 -133 11 -143 80 -156 56 -11
510 -11 567 0 24 5 47 15 52 22 15 24 10 446 -6 521 -43 207 -221 400 -478
518 -109 50 -167 68 -327 105 l-135 31 -5 252 c-6 325 18 296 -248 299 -108 1
-206 0 -217 -3z"/>
</g>
</svg>
